PathFileType	4	(X/Y/Z)	RBDS017\RBDS017runT25.trc
DataRate	CameraRate	NumFrames	NumMarkers	Units	OrigDataRate	OrigDataStartFrame	OrigNumFrames
150.000000	150.000000	4	33	mm	150.000000	3375	4500
Frame#	Time	L.ASIS			L.Heel.Bottom			L.Heel.Lateral			L.Heel.Top			L.Iliac.Crest			L.MT1			L.MT5			L.PSIS			L.Shank.Bottom.Lateral			L.Shank.Bottom.Medial			L.Shank.Top.Lateral			L.Shank.Top.Medial			L.Thigh.Bottom.Lateral			L.Thigh.Bottom.Medial			L.Thigh.Top.Lateral			L.Thigh.Top.Medial			R.ASIS			R.ASY			R.Heel.Bottom			R.Heel.Lateral			R.Heel.Top			R.Iliac.Crest			R.MT1			R.MT5			R.PSIS			R.Shank.Bottom.Lateral			R.Shank.Bottom.Medial			R.Shank.Top.Lateral			R.Shank.Top.Medial			R.Thigh.Bottom.Lateral			R.Thigh.Bottom.Medial			R.Thigh.Top.Lateral			R.Thigh.Top.Medial			
		X1	Y1	Z1	X2	Y2	Z2	X3	Y3	Z3	X4	Y4	Z4	X5	Y5	Z5	X6	Y6	Z6	X7	Y7	Z7	X8	Y8	Z8	X9	Y9	Z9	X10	Y10	Z10	X11	Y11	Z11	X12	Y12	Z12	X13	Y13	Z13	X14	Y14	Z14	X15	Y15	Z15	X16	Y16	Z16	X17	Y17	Z17	X18	Y18	Z18	X19	Y19	Z19	X20	Y20	Z20	X21	Y21	Z21	X22	Y22	Z22	X23	Y23	Z23	X24	Y24	Z24	X25	Y25	Z25	X26	Y26	Z26	X27	Y27	Z27	X28	Y28	Z28	X29	Y29	Z29	X30	Y30	Z30	X31	Y31	Z31	X32	Y32	Z32	X33	Y33	Z33	

3376	22.5	2202.50963096855	1107.285285698359	896.2616320349764	2125.696808264279	84.54908139374554	964.2973072666304	2139.004617733049	99.57888499933597	922.6349137173094	2134.610628116548	129.4341116503373	960.3913827131299	2138.066136833219	1215.532685097796	855.0628830027063	2353.967039137779	96.75625544045103	954.354888737369	2297.104654376315	74.04497971008144	858.1053963880636	2032.339703093387	1177.185874346558	974.8093968135264	2194.141849128923	246.3803113370233	890.3814965835826	2158.364951409397	249.7016284023515	932.2338411118244	2188.455077119597	325.9091105736903	879.3069919442672	2153.015815483384	329.9804168054928	919.7670186254994	2222.001876390226	729.2342151473243	850.8301808951488	2161.78094588263	703.0991788322556	881.3958978385855	2171.260802514376	826.8732836784019	842.1667303254915	2115.675524337524	803.3524418240722	873.7894151522992	2185.1881788044	1086.156841355916	1172.282661132994	1758.178572076665	113.6924596507695	1118.703891591682	1610.939892674096	245.9739855711838	1066.589332123899	1629.149548335179	237.3326560241832	1113.89026068311	1651.796862299491	265.242559080494	1081.773138910032	2158.179888142951	1186.840749443599	1203.421958142516	1760.586291537887	81.02059549219611	1068.838311531056	1697.058302445966	94.36022327752846	1165.955212013119	2030.651477079517	1172.57898309173	1078.685475994451	1737.328036981029	311.86696637788	1148.861427153236	1714.322973487455	331.4354294542403	1107.097653558722	1777.054280809753	386.4672327849469	1160.310119461082	1747.631624834427	404.4522606636599	1119.034400291594	1987.403108555787	718.0808446558007	1184.452072427754	1934.026815504719	730.5164787823084	1135.701619632574	1999.319595399105	826.8411216927719	1192.858247157805	1950.611437053442	838.8394779928383	1144.561416963376	
3377	22.50666666666667	2202.610380295941	1107.628445026221	895.8145692026065	2148.008975185772	76.48790396189032	965.6334417316267	2160.137135600399	92.28025375510303	923.9204930510143	2154.413400008926	121.8152011028982	961.5577622728543	2137.977243377586	1216.414450263624	854.9400236907763	2375.331598158288	101.4108626475744	955.1596623094358	2319.62237282181	75.28399574710727	859.0979793771504	2032.817347433027	1177.970562388567	974.3555104360859	2207.467909168613	242.3609411719812	891.3627698000106	2171.692083890757	243.8235390169307	933.2886328105703	2197.649685356183	321.500575826438	880.2096072715025	2162.15599039343	323.6871035231005	920.7538530548459	2217.124041964784	726.813312912351	850.9089277344839	2157.083279778622	701.8369004548493	882.6617486868626	2167.70734386476	825.1489240969129	842.2144429952933	2112.328275286705	802.6914854699147	874.7803988280666	2185.883204600817	1087.499974304202	1171.767491839935	1745.828989417527	119.4090540265903	1119.129215386779	1604.707276406399	257.9144796299677	1065.892103061396	1622.124066298707	248.5431731317005	1113.368884024587	1646.33440019477	275.3224420038028	1081.361691344468	2158.849346881348	1188.426176408774	1202.550945416577	1747.323601697617	86.20968122424388	1069.49639430263	1683.638054160471	102.5186434579607	1165.713932867915	2031.126466082509	1173.680755334214	1078.202440491244	1731.608522918063	318.2895927236	1149.017446323647	1709.344067850303	338.3959835803774	1107.233157996407	1773.32476453789	391.7763286112514	1160.527565407427	1744.615694761831	410.4672436948719	1119.124824365192	1989.450089213392	718.5098758636864	1185.034820644878	1935.693963297748	730.914753342577	1136.581048293656	2001.184406704003	827.2878690254353	1193.440579456452	1952.092840150778	839.2403934976536	1145.472785489038	
3378	22.51333333333334	2202.566722957681	1107.388908060227	895.3492404757322	2168.766554943668	69.76068788613551	966.7693893136492	2179.887150016735	86.19458805286601	925.0371305790741	2172.824702615449	115.3755930125755	962.5311136844898	2137.899428379022	1216.463710144055	854.742399220353	2394.659893137172	106.4947449501437	956.2272392061467	2340.372852097296	77.17802204779667	860.2635103418111	2033.070667276264	1178.202882177202	973.8851021713294	2219.851419969601	239.0499184424261	892.2837349319913	2184.045258359019	238.767867071948	934.1760652769931	2206.244060472382	317.6634813133389	881.08526869714	2170.648631123479	318.0593896585946	921.5835617064971	2212.446177190812	724.1398350407196	850.9101384844291	2152.62956748441	700.3008453533722	883.8703716673469	2164.283510325558	823.1168639311023	842.1238126853956	2109.161736499667	801.6989456298621	875.666731864254	2186.529408728735	1088.428845632726	1171.215773474915	1733.647433949076	125.615146488874	1119.285196763652	1598.585137821022	269.9177215370586	1065.098881910692	1615.273082108872	259.8700150236668	1112.726547279029	1640.897177158661	285.5101582825795	1080.782958038123	2159.416568540012	1189.473160937875	1201.722646277565	1734.154939757904	91.96977445145471	1069.901575545532	1670.53485321211	111.1826585018177	1165.327813488409	2031.424260352083	1174.270218657055	1077.69346784056	1726.222120893284	324.8347611178144	1149.015545371305	1704.749067086397	345.5890785736138	1107.2601350193	1770.114183925303	397.0074940204084	1160.665630958685	1742.173022362557	416.5333257392886	1119.19382988255	1992.222489467244	718.194306505603	1185.681046671494	1938.074266618005	730.4220679849426	1137.512229717352	2003.560011394523	827.0037997406652	1194.070958221546	1954.030851517522	838.7985621939328	1146.461731817742	
3379	22.52	2202.375850599321	1106.613847297911	894.8585610876019	2187.572031181149	64.18326254617264	967.715136898464	2197.904749259021	81.13250992997288	925.9886506154146	2189.495226045402	109.9584110941275	963.3140994856292	2137.820334719387	1215.718164131461	854.4597577225037	2411.721944043956	111.6123740292391	957.599010541122	2359.079086434525	79.36916516621797	861.6403298080374	2033.097426186579	1177.880374082555	973.4234443508725	2231.08016797583	236.3092202252454	893.1426199780392	2195.203666038622	234.4165425932371	934.9081742949481	2214.078300998343	314.3166228078736	881.9279101709948	2178.333886154964	313.0419276352024	922.2691498776703	2208.095097159067	721.2940334279765	850.9092608511477	2148.514619343228	698.538608777008	885.0257294927967	2161.091931093728	820.8473645020628	841.9674363009345	2106.244824444829	800.4161659058885	876.4626329123547	2187.128208536866	1088.917628766797	1170.630317633387	1721.767679424571	132.3061668040255	1119.178889430994	1592.636129540752	281.9944114027806	1064.296184283718	1608.675898448833	271.3021952680811	1112.041209971022	1635.556413398757	295.824933333107	1080.124701861577	2159.888152121117	1189.989589817762	1200.935687720184	1721.219765375232	98.33100882545367	1070.036027629428	1657.884605028692	120.3032062753303	1164.81077675703	2031.555942324917	1174.334848023836	1077.184707782174	1721.254787972413	331.5109060001876	1148.908010562341	1700.610897264049	353.012180408276	1107.229586415769	1767.472707148692	402.1710880061539	1160.758267861663	1740.345349622842	422.6456172881424	1119.277344596198	1995.66110376655	717.1351686717317	1186.38879696439	1941.124910518309	729.035804989722	1138.475079185922	2006.394053839673	825.9884668334284	1194.739472484607	1956.392019949167	837.5094441655773	1147.497557616231	
